HIERARCHY
ROOT Character1_Hips
{
  OFFSET 0 0 0
  CHANNELS 6 Xposition Yposition Zposition Zrotation Xrotation Yrotation
  JOINT Character1_Spine
  {
    OFFSET 0 8.754 -1.339
    CHANNELS 3 Zrotation Xrotation Yrotation
    JOINT Character1_Spine1
    {
      OFFSET 0 10.855 -0.645
      CHANNELS 3 Zrotation Xrotation Yrotation
      JOINT Character1_LeftShoulder
      {
        OFFSET 1.467 27.745 1.178
        CHANNELS 3 Zrotation Xrotation Yrotation
        JOINT Character1_LeftArm
        {
          OFFSET 18.486 -1.858 0.275
          CHANNELS 3 Zrotation Xrotation Yrotation
          JOINT Character1_LeftForeArm
          {
            OFFSET 31.798 2.36 2.921
            CHANNELS 3 Zrotation Xrotation Yrotation
            JOINT Character1_LeftHand
            {
              OFFSET 29.001 1.642 2.112
              CHANNELS 3 Zrotation Xrotation Yrotation
              End Site
              {
                OFFSET 0.269758 0.141128 0.89614
              }
            }
            JOINT L_Radius_RIGMESH
            {
              OFFSET 0.592911 0.209926 -0.435177
              CHANNELS 3 Zrotation Xrotation Yrotation
              End Site
              {
                OFFSET 0 0 0
              }
            }
          }
          JOINT L_Humerus_RIGMESH
          {
            OFFSET 0.000383861 -0.000257932 -6.47351e-005
            CHANNELS 3 Zrotation Xrotation Yrotation
            End Site
            {
              OFFSET 0 0 0
            }
          }
        }
        JOINT L_Shoulder_RIGMESH
        {
          OFFSET 3.24498e-005 -0.000608592 -0.000527677
          CHANNELS 3 Zrotation Xrotation Yrotation
          End Site
          {
            OFFSET 0 0 0
          }
        }
      }
      JOINT Character1_RightShoulder
      {
        OFFSET -1.467 27.745 1.178
        CHANNELS 3 Zrotation Xrotation Yrotation
        JOINT Character1_RightArm
        {
          OFFSET -18.486 -1.858 0.275
          CHANNELS 3 Zrotation Xrotation Yrotation
          JOINT Character1_RightForeArm
          {
            OFFSET -31.798 2.35964 2.92082
            CHANNELS 3 Zrotation Xrotation Yrotation
            JOINT Character1_RightHand
            {
              OFFSET -29.0007 1.64167 2.112
              CHANNELS 3 Zrotation Xrotation Yrotation
              End Site
              {
                OFFSET -0.269758 0.141827 0.896322
              }
            }
            JOINT R_Radius_RIGMESH
            {
              OFFSET 104.095 0.21029 -0.434995
              CHANNELS 3 Zrotation Xrotation Yrotation
              End Site
              {
                OFFSET 0 0 0
              }
            }
          }
          JOINT R_Humerus_RIGMESH
          {
            OFFSET 39.9064 -0.000257932 -6.47351e-005
            CHANNELS 3 Zrotation Xrotation Yrotation
            End Site
            {
              OFFSET 0 0 0
            }
          }
        }
        JOINT R_Shoulder_RIGMESH
        {
          OFFSET -3.24498e-005 -0.000608592 -0.000527677
          CHANNELS 3 Zrotation Xrotation Yrotation
          End Site
          {
            OFFSET 0 0 0
          }
        }
      }
      JOINT Character1_Neck
      {
        OFFSET 0 30.836 0.626
        CHANNELS 3 Zrotation Xrotation Yrotation
        JOINT Character1_Head
        {
          OFFSET 0 8.074 3.498
          CHANNELS 3 Zrotation Xrotation Yrotation
          End Site
          {
            OFFSET 0 -0.00153379 1.54668e-005
          }
        }
        JOINT Neck_RIGMESH
        {
          OFFSET -0.124055 0.00785685 1.28337
          CHANNELS 3 Zrotation Xrotation Yrotation
          End Site
          {
            OFFSET 0 0 0
          }
        }
      }
      JOINT Torso_RIGMESH
      {
        OFFSET 0 -0.000828813 -0.000380861
        CHANNELS 3 Zrotation Xrotation Yrotation
        End Site
        {
          OFFSET 0 0 0
        }
      }
    }
    JOINT Spine_RIGMESH
    {
      OFFSET 0.00325007 -0.0391337 -0.174576
      CHANNELS 3 Zrotation Xrotation Yrotation
      End Site
      {
        OFFSET 0 0 0
      }
    }
  }
  JOINT Character1_RightUpLeg
  {
    OFFSET -9.035 -4.63425 1.845
    CHANNELS 3 Zrotation Xrotation Yrotation
    JOINT Character1_RightLeg
    {
      OFFSET -0.919521 -40.345 1.155
      CHANNELS 3 Zrotation Xrotation Yrotation
      JOINT Character1_RightFoot
      {
        OFFSET 1.95452 -45.2655 -4.18888
        CHANNELS 3 Zrotation Xrotation Yrotation
        JOINT Character1_RightToeBase
        {
          OFFSET 1.87056 -6.69517 14.7145
          CHANNELS 3 Zrotation Xrotation Yrotation
          End Site
          {
            OFFSET 0 0 0
          }
        }
        JOINT R_Talus_RIGMESH
        {
          OFFSET 8 -7.75529 4.18888
          CHANNELS 3 Zrotation Xrotation Yrotation
          End Site
          {
            OFFSET 0 0 0
          }
        }
      }
      JOINT R_Tibia_RIGMESH
      {
        OFFSET 0 0 0
        CHANNELS 3 Zrotation Xrotation Yrotation
        End Site
        {
          OFFSET 0 0 0
        }
      }
    }
    JOINT R_Femur_RIGMESH
    {
      OFFSET 0 0 0
      CHANNELS 3 Zrotation Xrotation Yrotation
      End Site
      {
        OFFSET 0 0 0
      }
    }
  }
  JOINT Character1_LeftUpLeg
  {
    OFFSET 9.035 -4.63425 1.845
    CHANNELS 3 Zrotation Xrotation Yrotation
    JOINT Character1_LeftLeg
    {
      OFFSET 0.919521 -40.345 1.155
      CHANNELS 3 Zrotation Xrotation Yrotation
      JOINT Character1_LeftFoot
      {
        OFFSET -1.95452 -45.2655 -4.18888
        CHANNELS 3 Zrotation Xrotation Yrotation
        JOINT Character1_LeftToeBase
        {
          OFFSET -1.87056 -6.69517 14.7145
          CHANNELS 3 Zrotation Xrotation Yrotation
          End Site
          {
            OFFSET 0 0 0
          }
        }
        JOINT L_Talus_RIGMESH
        {
          OFFSET -8 -7.75529 4.18888
          CHANNELS 3 Zrotation Xrotation Yrotation
          End Site
          {
            OFFSET 0 0 0
          }
        }
      }
      JOINT L_Tibia_RIGMESH
      {
        OFFSET 0 0 0
        CHANNELS 3 Zrotation Xrotation Yrotation
        End Site
        {
          OFFSET 0 0 0
        }
      }
    }
    JOINT L_Femur_RIGMESH
    {
      OFFSET 0 0 0
      CHANNELS 3 Zrotation Xrotation Yrotation
      End Site
      {
        OFFSET 0 0 0
      }
    }
  }
  JOINT Pelvis_RIGMESH
  {
    OFFSET 0 0 0
    CHANNELS 3 Zrotation Xrotation Yrotation
    End Site
    {
      OFFSET 0 0 0
    }
  }
}
MOTION
Frames:	2
Frame Time:	0.00833333
-30.5073 104.521 -237.413 3.43058 -2.8926 -8.40971 -2.20695e-032 -3.97569e-016 -3.18055e-015 -5.17233 8.1794 2.98716 -7.54706 2.64314 -4.3864 -66.8062 29.9257 3.87051 0.245087 -0.103518 -19.4775 -3.18284 12.9988 3.22526 2.38542e-015 0 1.59028e-015 -2.38542e-015 -3.18055e-015 -4.77083e-015 7.95139e-016 0 -0 2.83471 1.18572 9.64735 73.0025 20.2153 -1.72576 -0.609169 -0.134549 9.11641 4.39642 23.03 -4.43533 -6.95746e-016 3.18055e-015 -5.96354e-016 -3.97569e-015 -3.18055e-015 -1.59028e-015 2.48481e-016 0 -7.95139e-016 1.10348e-032 7.95139e-016 -7.95139e-016 1.06806 -9.32775 8.02253 -1.85799 -9.96019 1.79163 1.10348e-032 7.95139e-016 -7.95139e-016 -1.6895 2.78346 0.81803 -8.55183 -19.9991 -0.359523 0.218977 54.8234 0.195567 5.88601 21.1025 -6.09542 0.247414 -8.63941 0.0216531 -1.59028e-015 -6.36111e-015 -3.18055e-015 -1.59028e-015 -3.18055e-015 -1.59028e-015 -1.19271e-015 0 -0 -4.90321 -5.73993 8.91374 1.80469 4.35113 -0.0671706 0.199747 1.54428 3.18677 0.0142347 0.110212 -0.00908156 -7.45443e-017 -3.97569e-016 7.95139e-016 3.10601e-018 1.59028e-015 -9.93923e-017 1.67725e-016 1.59028e-015 4.96962e-017 -2.20695e-032 -3.97569e-016 -3.18055e-015 
-30.4937 104.716 -236.43 3.33873 -2.99433 -8.07143 1.98785e-016 7.95139e-016 1.59028e-015 -5.02892 8.34074 2.53397 -7.39881 2.53052 -4.52146 -66.4297 29.9235 3.44355 0.244505 -0.10331 -19.7998 -2.96713 13.0059 3.07079 7.95139e-016 6.36111e-015 -0 7.95139e-016 0 -7.95139e-016 2.78299e-015 0 -0 2.90159 1.30091 9.534 73.2333 20.5475 -2.09706 -0.609704 -0.134634 8.88879 4.59039 23.2572 -4.56446 -2.73329e-015 -3.18055e-015 -1.2921e-015 3.97569e-016 0 -7.95139e-016 0 7.95139e-016 -0 4.41391e-032 -1.59028e-015 1.59028e-015 1.11309 -9.32049 8.05192 -1.83431 -9.9242 1.78245 4.41391e-032 -1.59028e-015 1.59028e-015 -1.66442 2.80273 0.748947 -8.32765 -20.9334 -0.601979 0.229782 55.3082 0.207211 5.93339 20.088 -5.52772 0.247433 -8.68896 0.021656 3.18055e-015 -9.54166e-015 3.18055e-015 7.95139e-016 -3.18055e-015 -1.59028e-015 3.97569e-016 0 -0 -5.09304 -4.14776 8.69854 1.84612 2.806 -0.0130332 0.0198913 1.64092 3.06911 0.014244 0.168564 -0.00908159 7.45443e-017 3.97569e-016 7.95139e-016 -2.48481e-017 0 -1.98785e-016 -3.04389e-016 0 1.98785e-016 1.98785e-016 7.95139e-016 1.59028e-015 
